{"title":"Abar Byomkesh (2012)  -  Bengali  -  Original DVD RIP","uid":7515197,"size":734309503,"categoryP":"video","categoryS":"movies","magnet":"?xt=urn:btih:e3c65acfe2ffeb0580c746db5af668fb1495e532&amp;dn=Abar+Byomkesh+%282012%29++-++Bengali++-++Original+DVD+RIP&amp;tr=udp%3A%2F%2Ftracker.openbittorrent.com%3A80&amp;tr=udp%3A%2F%2Fopen.demonii.com%3A1337&amp;tr=udp%3A%2F%2Ftracker.coppersurfer.tk%3A6969&amp;tr=udp%3A%2F%2Fexodus.desync.com%3A6969","seeders":2,"leechers":0,"uploader":"rayjonty","files":-1,"time":1344450582,"description":"\n\n\n\n___________________________________________________________________________________\n\n\n                I Always Want To Be The First, Not To Be The Best !                     \n\n___________________________________________________________________________________\n\n\n\n\n\nUpcoming Movies :\n\n\n\n\nKhokababu (2012) - Original Print\n\nBiti Las Kata Ghar (1944)\n\nBiti Is A Morgue (1952)\n\nBando Ar Shiner Biye Bholebabar Janmo Dine (1955)\n\nChatrak (2011) - Original DVD RIP\n\nGupi Gayen Bagha Bayen (1968) - Bluray RIP\n\n\n\n\nScreens :\n\n\n\n &lt;a href=&quot;\nhttp://www.shotpix.com/images/51726142552246455931.jpeg&quot; rel=&quot;nofollow&quot; target=&quot;_NEW&quot;&gt;\nhttp://www.shotpix.com/images/51726142552246455931.jpeg&lt;/a&gt;\n\n &lt;a href=&quot;\nhttp://www.shotpix.com/images/57931363584470838599.jpg&quot; rel=&quot;nofollow&quot; target=&quot;_NEW&quot;&gt;\nhttp://www.shotpix.com/images/57931363584470838599.jpg&lt;/a&gt;\n\n\n\n\nExtra Screens :\n\n\n\n &lt;a href=&quot;\nhttp://www.shotpix.com/images/08186080128707603030.jpg&quot; rel=&quot;nofollow&quot; target=&quot;_NEW&quot;&gt;\nhttp://www.shotpix.com/images/08186080128707603030.jpg&lt;/a&gt;\n &lt;a href=&quot;\nhttp://www.shotpix.com/images/56388412517158858141.jpg&quot; rel=&quot;nofollow&quot; target=&quot;_NEW&quot;&gt;\nhttp://www.shotpix.com/images/56388412517158858141.jpg&lt;/a&gt;\n &lt;a href=&quot;\nhttp://www.shotpix.com/images/72202526061378836125.jpg&quot; rel=&quot;nofollow&quot; target=&quot;_NEW&quot;&gt;\nhttp://www.shotpix.com/images/72202526061378836125.jpg&lt;/a&gt;\n &lt;a href=&quot;\nhttp://www.shotpix.com/images/40563126451367788837.jpg&quot; rel=&quot;nofollow&quot; target=&quot;_NEW&quot;&gt;\nhttp://www.shotpix.com/images/40563126451367788837.jpg&lt;/a&gt;\n\n\n\n\nMedia Info :\n\n\n\n\nFormat                           : AVI\nFormat/Info                      : Audio Video Interleave\nFile size                        : 699 MiB\nDuration                         : 1h 38mn\nOverall bit rate                 : 996 Kbps\n\n\nVideo\nID                               : 0\nFormat                           : MPEG-4 Visual\nFormat settings, GMC             : No warppoints\nFormat settings, Matrix          : Custom\nCodec ID                         : XVID\nCodec ID/Hint                    : XviD\nDuration                         : 1h 38mn\nBit rate                         : 869 Kbps\nWidth                            : 720 pixels\nHeight                           : 320 pixels\nDisplay aspect ratio             : 2.25:1\nFrame rate                       : 29.970 fps\nColor space                      : YUV\nChroma subsampling               : 4:2:0\nBit depth                        : 8 bits\nScan type                        : Progressive\nCompression mode                 : Lossy\nBits/(Pixel*Frame)               : 0.126\nStream size                      : 610 MiB (87%)\n\nAudio\nID                               : 1\nFormat                           : MPEG Audio\nFormat version                   : Version 1\nFormat profile                   : Layer 3\nMode                             : Joint stereo\nMode extension                   : MS Stereo\nCodec ID                         : 55\nCodec ID/Hint                    : MP3\nDuration                         : 1h 38mn\nBit rate mode                    : Variable\nBit rate                         : 113 Kbps\nNominal bit rate                 : 128 Kbps\nChannel(s)                       : 2 channels\nSampling rate                    : 48.0 KHz\nCompression mode                 : Lossy\nStream size                      : 79.4 MiB (11%)\nAlignment                        : Aligned on interleaves\nInterleave, duration             : 24 ms (0.72 video frame)\n\n\n\n\n___________________________________________________________________________________\n\n\n                   I Do Not Have Enough Time, I Do Not Have !\n___________________________________________________________________________________\n\n\n\n\n\n","torrent":{"xt":"urn:btih:e3c65acfe2ffeb0580c746db5af668fb1495e532","amp;dn":"Abar+Byomkesh+%282012%29++-++Bengali++-++Original+DVD+RIP","amp;tr":["udp%3A%2F%2Ftracker.openbittorrent.com%3A80","udp%3A%2F%2Fopen.demonii.com%3A1337","udp%3A%2F%2Ftracker.coppersurfer.tk%3A6969","udp%3A%2F%2Fexodus.desync.com%3A6969"],"infoHash":"e3c65acfe2ffeb0580c746db5af668fb1495e532","infoHashBuffer":{"type":"Buffer","data":[227,198,90,207,226,255,235,5,128,199,70,219,90,246,104,251,20,149,229,50]},"announce":[],"urlList":[]}}